<?xml version="1.0" standalone="no"?>
<!DOCTYPE svg PUBLIC "-//W3C//DTD SVG 20010904//EN"
 "http://www.w3.org/TR/2001/REC-SVG-20010904/DTD/svg10.dtd">
<svg version="1.0" xmlns="http://www.w3.org/2000/svg"
 width="480.000000pt" height="480.000000pt" viewBox="0 0 480.000000 480.000000"
 preserveAspectRatio="xMidYMid meet">
<metadata>
Created by potrace 1.11, written by Peter Selinger 2001-2013
</metadata>
<g transform="translate(0.000000,480.000000) scale(0.100000,-0.100000)"
fill="#000000" stroke="none">
<path d="M810 3220 l0 -980 220 0 220 0 0 350 0 350 118 0 117 -1 184 -349
185 -350 248 0 c136 0 248 2 248 4 0 2 -97 175 -215 384 -118 209 -215 384
-215 389 0 4 25 21 56 37 129 68 236 218 268 378 46 227 -6 442 -138 573 -72
71 -150 115 -267 148 -127 37 -265 47 -666 47 l-363 0 0 -980z m806 607 c95
-20 151 -58 181 -124 22 -48 25 -65 21 -137 -3 -67 -9 -92 -31 -129 -62 -106
-148 -137 -378 -137 l-159 0 0 270 0 270 153 0 c83 0 179 -6 213 -13z"/>
<path d="M2610 3221 l0 -981 344 0 c371 0 445 7 585 54 121 42 198 91 297 190
73 73 99 109 136 181 86 168 118 321 118 561 0 318 -72 539 -228 706 -83 89
-186 157 -295 196 -158 57 -218 64 -604 69 l-353 5 0 -981z m675 597 c160 -35
275 -151 320 -326 25 -97 35 -253 24 -372 -16 -185 -54 -290 -139 -383 -84
-92 -199 -137 -352 -137 l-78 0 0 621 0 621 88 -6 c48 -4 110 -12 137 -18z"/>
<path d="M930 1120 l0 -520 349 0 349 0 5 23 c3 12 9 48 12 80 l7 57 -261 0
-261 0 0 440 0 440 -100 0 -100 0 0 -520z"/>
<path d="M1560 1633 c1 -4 83 -237 183 -518 l182 -510 120 0 119 0 188 510
c103 281 188 514 188 518 0 4 -45 6 -101 5 l-101 -3 -109 -315 c-60 -173 -123
-360 -140 -415 -16 -55 -33 -107 -36 -115 -3 -8 -18 32 -35 90 -16 58 -78 251
-137 430 l-107 325 -107 3 c-59 1 -107 -1 -107 -5z"/>
<path d="M2677 1633 c-4 -3 -7 -237 -7 -520 l0 -513 100 0 100 0 0 520 0 520
-93 0 c-52 0 -97 -3 -100 -7z"/>
<path d="M3010 1633 c1 -4 83 -237 183 -518 l183 -510 119 0 120 0 187 510
c103 281 188 513 188 518 0 4 -45 7 -99 7 -85 0 -100 -2 -106 -17 -23 -60
-228 -664 -251 -738 -15 -49 -30 -93 -33 -97 -3 -4 -19 39 -34 95 -15 56 -76
248 -135 427 l-108 325 -107 3 c-59 1 -107 -1 -107 -5z"/>
</g>
</svg>
